<?xml version="1.0" encoding="UTF-8"?>
<!DOCTYPE svg PUBLIC "-//W3C//DTD SVG 1.1//EN" "http://www.w3.org/Graphics/SVG/1.1/DTD/svg11.dtd">
<!-- Creator: CorelDRAW -->
<svg xmlns="http://www.w3.org/2000/svg" xml:space="preserve" width="282.467mm" height="85.3635mm" version="1.1" style="shape-rendering:geometricPrecision; text-rendering:geometricPrecision; image-rendering:optimizeQuality; fill-rule:evenodd; clip-rule:evenodd"
viewBox="0 0 8919.1 2695.41"
 xmlns:xlink="http://www.w3.org/1999/xlink"
 xmlns:xodm="http://www.corel.com/coreldraw/odm/2003">
 <defs>
  <style type="text/css">
   <![CDATA[
    .fil1 {fill:black}
    .fil0 {fill:#E30613}
    .fil2 {fill:#FEFEFE}
   ]]>
  </style>
 </defs>
 <g id="Слой_x0020_1">
  <metadata id="CorelCorpID_0Corel-Layer"/>
  <g id="_1809232542432">
   <path class="fil0" d="M4362.21 1922.16c-32.91,17.17 -52.19,54.9 -106.55,62.12 -50.69,6.74 -94.15,-16.35 -96.73,-63.23 -2,-36.33 66.07,-226.71 83.09,-244.3 29.08,-30.04 88.54,-26.61 122.13,-1.54 23.51,17.55 52.29,61.99 74.06,90.64 66.67,87.76 169.16,67.28 141.12,9.27 -15.98,-33.06 -162.6,-87.82 -233.63,-181.36 -52.95,-69.74 -53.97,-178.49 -5.47,-258.1 84.34,-138.41 297.78,-177.72 471.2,-78.87 34.93,-13.74 51.87,-51.1 114.86,-49.64 50.35,1.16 86.01,29.28 77,83.1 -5.94,35.49 -26.89,90.44 -37.89,126.67 -13.17,43.38 -21.39,88.87 -65.78,98.74 -90.42,20.11 -118.11,-80.87 -193.25,-132.72 -43.66,-30.12 -121.57,-23.69 -84.89,29.55 34.4,49.93 212.92,105.83 267.73,226.92 39.95,88.28 -1.37,194.75 -45.39,249.92 -75.58,94.73 -251.3,121.69 -374.86,85.44 -45.96,-13.49 -73.11,-35.25 -106.77,-52.63zm-479.18 -712.99c166.9,0 235.21,-15.9 149.34,222.96 -31.04,86.34 -138.5,119.84 -191.89,-2.02 -13.12,-29.93 -15.18,-60.49 -47.29,-62.01 -17.55,23.68 -98.86,337 -114.93,393.61 -6.41,22.58 -27.51,81.45 -22.72,103.15 6.18,27.91 42.77,47.21 12.15,90.99 -30.13,43.08 -156.81,28.62 -218.91,28.62 -61.48,0 -203.03,23.46 -190.99,-62.32 5.97,-42.48 42.59,-46.6 62.39,-69.2 17.4,-19.85 24.33,-61.24 32.95,-91.88 20.46,-72.7 100.15,-341.52 109.67,-392.47 -66.25,4.49 -92.04,147.72 -208.28,138.13 -117.77,-9.72 -46.84,-161.54 -26.79,-233.91 -7.78,-6.68 -6.36,-4.96 -15,-9.98 -11.55,66.08 -55.33,49.13 -74.24,94.11l-116.15 403.02c-27.14,94.74 -36.19,88.57 -9.05,133 33.11,54.2 -17.32,89.62 -69.49,92.31 -53.92,2.78 -114.25,0.36 -168.86,0.36 -62.24,0 -106.98,7.38 -159.73,-15.18 0,65.66 43.94,71.34 109.8,71.08 85.55,-0.33 72.47,-13.21 127.67,57.02 84.66,107.71 204.58,237.86 292.37,346.55 31.54,39.05 193.03,236.33 213.9,250.31 19.57,-4.56 197.45,-107.52 232.94,-126.45l326.33 -182.8c15.07,-8.71 30.43,-16.58 44.92,-24.95 16.09,-9.3 31.07,-17.17 48.15,-26.73 150.81,-84.35 364.74,-197.28 509.45,-284.23 27.94,-16.79 31.93,-6.59 61.37,-4.02 93.45,8.17 212.05,-24.39 275.73,-88.12l33.49 -41.39 4.97 -4.99 4.99 -14.98 5.01 -4.99 4.99 -9.98c2.95,-12.66 12.59,-46.86 19.15,-55.72 6.3,-8.52 37.04,-24.57 48.21,-29.13l106.02 -370.64c5.85,-20.62 25.95,-78.98 22.43,-98.08 -4.75,-25.78 -43.16,-47.04 -12.4,-91.61 28.64,-41.5 151.53,-27.43 210.92,-27.43 79.86,0 159.73,0 239.59,0 68.71,0 169.33,-10.95 204.94,33.4 39.97,49.78 3.28,129.22 -12.66,187.59 -21.4,78.4 -70.2,93.66 -149.48,61.26 -1.87,46.61 -39.95,149.87 -54.1,199.41l46.23 -3.13c8.35,-37.86 34.94,-97.14 34.94,-135.36 132.83,30.94 136.06,-16.75 167.55,-126.95 8.91,-31.17 17.14,-49.52 17.14,-87.69 11.83,-6.26 20.35,-11.58 34.94,-14.98 0.63,1.32 4.4,10.41 4.48,10.56 3.85,6.94 2.78,5.02 6.28,9.41 -1.52,-39.79 -24.4,-37.92 -22.9,-74.85 1.18,-29.17 17.41,-44.61 39.92,-52.3 38.88,-13.28 129.17,-3.95 176.87,-7.65 20.46,-17.72 167.18,-95.65 199.92,-114.52l269.26 -150.04c96.82,-50 203.56,-115.95 301.18,-168.02l407.67 -226.25c13.51,-6.98 21.38,-13.05 34.88,-20.02 86.75,-44.8 182.85,-104.89 269.6,-149.69l470.83 -262.92c23.44,-12.5 191.91,-101.34 202.99,-116.46l-1615.47 451.01c-182.95,53.04 -359.67,98.16 -542.62,151.2l-1345.32 376.74c-88.66,26.08 -179.38,48.32 -269.56,74.85l-506.94 141.9c-13.2,3.59 -22.33,4.58 -32.72,13.48z"/>
   <path class="fil0" d="M2106.07 1213.08c57.47,-9.87 117.52,-4.52 131.74,47.69 9.47,34.78 -22.14,121.26 -32.17,156.63 -15.36,54.18 -28.19,103.18 -84.95,109.73 -125.86,14.51 -136.12,-163.15 -241.24,-141.23 -112.04,23.36 -200.01,353.25 -117.78,403.59 0,-21.33 -3.45,-18.55 -4.29,-33.08 -1,-17.35 2.41,-19.63 4.12,-39.46 2.12,-24.54 6.96,-57.63 15.12,-74.73 -2.36,-18.53 -6.61,-37.41 -0.06,-54.99 7.33,-19.69 17.32,-20.31 28.39,-34.86 34.36,-87.92 99.99,-160.95 185.15,-68.7l51.1 63.77 164.72 3.05c6.76,-23.77 45.72,-107.39 49.91,-157.84 21.26,14.23 37.55,51.38 61.24,64.89 6.94,-34.61 25.98,-79.03 30.73,-112.42 5.96,-41.89 -47.29,-57.25 -12.69,-107.67 31.23,-45.51 194.28,-28.26 260.14,-28.26 41.15,0 99.15,-8.43 129.65,13.9 38.71,28.33 15.39,75.33 -11.31,93.34 -43.8,29.54 -40.57,29.71 -57.06,87.69 -9.46,33.26 -26.26,80.27 -29.99,111.83l138.79 0.1c13.42,-27.56 28.4,-93.48 38.81,-129.25 32.02,-110.02 -28.62,-67.83 -9.55,-134.09 13.72,-47.65 70.65,-43.59 125.08,-43.53 58.24,0.07 116.47,0.01 174.71,0.01l-21.49 -14.77c-11.02,-5.65 -15.59,-7.51 -26.76,-13.08 -19.65,-9.81 -33.6,-16.8 -53.24,-26.62l-1387.63 -688.83c-72.14,-36.07 -143.29,-69.61 -212.97,-106.49 4.82,18.07 155.44,191.85 175.95,213.39l134.63 159.86c15.78,18.1 28.86,37.32 45.07,54.76l358.13 425.68z"/>
   <path class="fil1" d="M2375.55 1263.28c1.07,32.18 29.31,34.68 20.87,89.31 -7.32,47.37 -140.6,503.16 -156.34,528.47 -11.79,18.96 -58.14,41.37 -53.09,49.59 16.32,11.39 288.65,10.04 316.2,-1.13 1.43,-46.54 -47.45,-2.81 -3.86,-153.44 7.53,-26.02 14.63,-50.64 22.35,-77.52 6.52,-22.72 14.8,-69.24 28.63,-73.33l235.85 0c-7.11,35.12 -58.11,225.29 -78.27,254.34 -8.27,11.91 -15.43,18.49 -28,27.07 -15.73,10.73 -22.48,9.37 -28.07,25.07 9.83,4.68 295.2,15.22 321.22,-5.27 -29.13,-75.56 -41.72,-26.91 0.73,-175.12l99.71 -349.51c43.03,-150.25 57.7,-84.71 88.94,-138.17 -20.48,-9.4 -231.01,-6.83 -282.94,-5.37l-26.39 3.48c-6.22,2.21 -7.31,3.5 -10.1,5.42 -3.08,39.56 45.75,1.56 3.81,147.52 -13.58,47.28 -26.96,105.2 -44.43,150.13l-240.16 0.37c-0.41,-17.16 57.26,-225.59 75.56,-249.85 27.59,-36.56 47.8,-26.3 57.24,-54.03 -31.66,-6.42 -288.74,-5.9 -319.47,1.95z"/>
   <path class="fil1" d="M486.22 1325.13c114.09,-12.71 179.45,16.21 143.2,138.01 -32.24,108.32 -85.41,103.15 -203.75,102.62l60.55 -240.63zm-244.64 -59.96c-0.18,27.06 25.91,33.75 20.82,81.34 -2.55,23.82 -17.13,65.95 -24.02,90.27l-98.9 350.22c-7.6,28 -13.26,62.3 -28.71,86.02 -16.76,25.75 -31.86,30.06 -44.52,40.17 -19.58,15.64 -7.06,-2.6 -14.3,20.02 44.16,6.32 323.77,11.57 345.64,-6.79 -47.69,-54.51 -60.91,-41.02 -34.26,-140.03 10.27,-38.15 30.41,-126.75 45.63,-158.3 257.21,-36.57 105.82,156.65 130.14,248.53 27.13,102.49 262.63,89.62 288.6,-15.07 -144.64,-15.72 4.58,-145.55 -64.53,-214.17 -46.52,-46.2 -222.42,-21.1 -279.54,-45.11 94.52,-41.47 315.52,17.94 374.95,-134.32 19.05,-48.8 16.14,-97.29 -15.07,-135.4 -58.21,-71.05 -149.05,-74.25 -264.83,-74.25 -51.77,0 -309.59,-7.18 -337.1,6.87z"/>
   <path class="fil2" d="M238.38 1436.79c6.89,-24.31 21.47,-66.45 24.02,-90.27 5.09,-47.59 -21,-54.28 -20.82,-81.34 27.5,-14.05 285.33,-6.87 337.1,-6.87 115.78,-0 206.62,3.2 264.83,74.25 31.22,38.11 34.12,86.59 15.07,135.4 -59.43,152.26 -280.42,92.85 -374.95,134.32 57.12,24.01 233.02,-1.09 279.54,45.11 69.11,68.63 -80.1,198.45 64.53,214.17 -25.97,104.7 -261.48,117.57 -288.6,15.07 -24.32,-91.89 127.07,-285.1 -130.14,-248.53 -15.22,31.54 -35.36,120.15 -45.63,158.3 -26.65,99.02 -13.43,85.52 34.26,140.03 -21.87,18.36 -301.49,13.11 -345.64,6.79 7.24,-22.61 -5.28,-4.37 14.3,-20.02 12.67,-10.12 27.76,-14.42 44.52,-40.17 15.45,-23.73 21.11,-58.02 28.71,-86.02l98.9 -350.22zm657.03 493.56c9.85,-20.28 48.3,-29.53 65.41,-65.61 10.97,-23.14 23.18,-74.33 31.44,-103.57 16.47,-58.29 115.24,-394.06 115.99,-423.54 1.29,-50.71 -52.69,-74.64 4.28,-79l270.6 -0.36c53.8,3.61 -16.44,32.27 -32.07,53.35 -23.93,32.27 -52.21,152.75 -66.23,203.27l-88.36 315.6c-14.76,65.79 19.03,69.7 18.76,98.89 -28.77,12.56 -298.53,12.87 -319.83,0.98zm-875.78 39.27c58.13,28.24 168.09,16.03 239.59,16.03 72.25,0 180.31,18.61 188.55,-58.92 0.24,-21.92 -8.07,-26.67 -18.84,-41.01 -50.51,-30.61 -24.06,-62.8 2.43,-161.14 8.19,-30.4 6.98,-45.51 22.52,-49.14 25.87,0.08 39.71,-1.56 57.1,9.79 5.74,17.78 4.53,32.73 -7.19,45.82 -0.58,28.24 -14.77,67.74 -18.79,97.16 -5.54,40.64 7.74,69.4 18.79,95.72 34.16,27.94 51.24,69.69 159.66,71.44 34.47,0.56 73.3,-3.96 103.68,-14.88 15.38,-5.53 28.37,-12.38 40.33,-19.51 22.97,-13.7 18.72,-16.86 38.14,-25.38 11.12,58.54 65.98,50.09 127.39,50.06 59.91,-0.03 119.83,-0 179.74,0.03 184.35,0.12 89.84,-102.97 89.68,-128.7 -0.12,-19.26 87.09,-316.86 96.87,-352.77 11.76,-43.17 24.73,-97.35 39.45,-140.08 18.77,-54.49 66.96,-34.64 76.81,-101.28 3.07,-57.32 -51.65,-54.98 -108.18,-54.91 -56.57,0.07 -113.15,0 -169.71,0 -60.3,0 -113.68,-6.92 -136.02,33.75 -27.1,49.33 25.77,65.77 11.03,120.38l-111.33 393.2c-7.6,26.14 -20.84,93.67 -40.14,104.99 -29.03,17.02 -15.32,-29.18 -52.97,-44.88l-35.92 -8.46c6.63,-57.06 24.82,-79.56 15.04,-144.76l0.91 -10.28c-12.51,-11.74 -25.06,-34.77 -36.74,-49.61 53.47,-36.79 71.06,-35.27 102.49,-93.98 28.48,-53.2 31.14,-100.62 15.65,-160.59 -50.29,-132.28 -195.76,-139.76 -325.98,-139.76 -78.2,0 -156.4,0 -234.6,0 -41.72,0 -177.07,-15.83 -158.83,73.44 3,14.68 9.85,18.94 14.88,40.7 9.67,41.82 -13.06,93.71 -27.49,143.68l-103.55 365.65c-16.54,47.42 -76.26,44.07 -74.01,99.95 0.78,19.31 9.83,27.54 19.57,38.25z"/>
   <path class="fil1" d="M1822.51 1602.49c0.85,62.53 130.63,-7.98 70.69,166.25 -12.66,36.8 -30.45,62.27 -66.62,73.07 -278.25,83.03 -112.37,-633.8 133.93,-488.36 33.35,19.69 46.63,39.31 70.36,69.4 16.21,20.55 41.43,58.55 80.14,55.69 36.25,-2.68 41.88,-54 51.91,-89.03 5.1,-17.79 28.87,-93.01 27.95,-106.69 -3.04,-44.97 -72.02,-22.54 -93.3,-8.53 -28.07,18.48 -46.6,43.27 -70.59,61.75 -23.13,-17.52 -38.64,-36.45 -69.8,-54.02 -91.09,-51.33 -199.75,-41.84 -289.76,1.29 -110.08,52.76 -169.56,134.61 -207.06,272.38 -84.12,308.99 124.61,427.53 287.56,377.24 33.18,-10.24 55.17,-25.45 77.24,-42.47 26.71,-20.6 33.03,-42.32 61.13,-60.49 4.72,21.95 15.32,51.13 23.82,73.06 12.45,32.1 22.41,33.22 61.09,33.75 39.78,0.54 49.68,2.55 62.21,-32.88 20.96,-59.24 39.69,-158.72 62.64,-216.74 18.84,-47.64 85.83,-46.65 92.91,-87.91 -46.5,-5 -340.27,-7.24 -366.44,3.23z"/>
   <path class="fil1" d="M4361.76 1858.58c30.68,18.77 46.27,37.12 87.68,55.93 116.17,52.78 335.72,35.74 391.66,-117.9 65.64,-180.29 -95.09,-232.61 -216.69,-316.77 -139.92,-96.83 -9.7,-220.85 108.09,-138.06 69.4,48.78 108.99,137.04 152.79,125.83 24.06,-6.16 35.42,-71.42 43.19,-97.75 9.4,-31.87 31.1,-77.18 24.32,-108.16 -62.29,-16.37 -100.21,26.06 -130.36,55.72 -31.25,-10.84 -59.77,-32.51 -99.39,-45.99 -268.57,-91.37 -434.75,130.81 -348.33,278.46 70.82,121.01 335.81,169.28 242.22,291.98 -40.03,52.48 -129.68,42.09 -197.18,-22.55 -20.5,-19.63 -42.97,-53.09 -61.61,-78.15 -82.55,-110.92 -105.69,33.56 -121.02,80.39 -7.51,22.96 -35.57,85.99 -24.37,104.06 33.84,45.86 119.73,-49.42 149.02,-67.04z"/>
   <path class="fil1" d="M6598.48 1263.36c-0.23,32.36 29.19,36.22 20.9,89.23 -6.76,43.21 -139.85,499.69 -153.1,521.74 -22.82,37.97 -49.34,29.38 -57.52,57.38 26.34,11.67 361.5,4.77 419.23,4.77 57.04,0 162.25,15.59 187.84,-26.65 13.51,-22.3 50.4,-142.84 43,-163.24 -8.42,-11.96 -34.45,-11.39 -48.49,-6.89 -22.95,7.35 -79.38,76.61 -97.42,97.32 -51.51,59.14 -119.78,43.79 -215.67,43.79l75.83 -280.41c86.8,-1 91.05,-6.18 117.42,48.95 1.65,3.45 6.3,14.28 7.88,16.98 10.63,18.23 -0.84,6.91 15.48,16.43 40.08,17.53 48.61,-44.54 57.52,-76.88 5.36,-19.42 11.45,-38.44 17.24,-57.77 3.84,-12.81 17.99,-43.7 7.76,-54.74 -27.97,-23.12 -70.93,28.16 -85.66,41.78 -34.48,31.87 -67.94,22.37 -124.17,22.37l67.64 -243.13c54.52,-2.38 161.5,-15.98 188.19,23.62 37.72,55.97 0.24,135.14 97.29,115.63 8.94,-18.95 46.58,-135.71 43.03,-160.5 -7.29,-50.89 -128.29,-34.83 -175.02,-34.83 -77.7,0 -354.94,-9.55 -409.21,5.05z"/>
   <path class="fil1" d="M4943.61 1930.17c24.18,14.1 362.26,6.32 421.89,6.32 58.57,0 160.57,15.24 187.03,-27.57 16.04,-25.96 50.19,-140.48 42.97,-166.75 -63.56,-20.24 -90.98,32.93 -148.21,96.65 -51.78,57.64 -118.57,42 -213.17,42l75.34 -278.58c31.9,-5.6 80.42,-6.85 98.3,12.74 20.15,22.08 20.37,58.56 42.99,68.33 44.36,19.15 56.63,-77.92 74.59,-135.85 7.69,-24.8 17.82,-42.09 7.86,-53.02 -26.57,-27.59 -71.25,28.25 -85.42,40.27 -38.54,32.67 -64.64,22.83 -124.53,22.83l67.79 -243.63c44.12,-0.1 91.08,-1.44 134.29,0.11 50.15,1.81 56.93,22.72 68.96,64.36 11.52,39.89 10.93,80.69 55.67,79.75 39.56,-0.82 37.78,-32.01 52.97,-87.26 36.1,-131.24 3.02,-112.55 -122.8,-112.55l-409.63 -0.01c-70.99,2.2 -16.54,21.7 -13.18,69.35 2.38,33.76 -98.97,369.81 -116.06,429.69 -8.93,31.3 -19.05,76.11 -31.05,103.53 -18.55,42.42 -55.28,47.21 -66.61,69.28z"/>
   <path class="fil2" d="M2375.55 1263.28c30.73,-7.86 287.81,-8.38 319.47,-1.95 -9.44,27.72 -29.65,17.46 -57.24,54.03 -18.31,24.25 -75.97,232.68 -75.56,249.85l240.16 -0.37c17.47,-44.93 30.85,-102.85 44.43,-150.13 41.94,-145.96 -6.89,-107.96 -3.81,-147.52 2.79,-1.92 3.87,-3.21 10.1,-5.42l26.39 -3.48c51.93,-1.46 262.46,-4.03 282.94,5.37 -31.24,53.45 -45.91,-12.08 -88.94,138.17l-99.71 349.51c-42.45,148.21 -29.86,99.56 -0.73,175.12 -26.02,20.49 -311.39,9.95 -321.22,5.27 5.6,-15.7 12.34,-14.34 28.07,-25.07 12.57,-8.57 19.73,-15.16 28,-27.07 20.16,-29.05 71.16,-219.22 78.27,-254.34l-235.85 0c-13.83,4.08 -22.11,50.61 -28.63,73.33 -7.72,26.88 -14.82,51.5 -22.35,77.52 -43.58,150.64 5.29,106.9 3.86,153.44 -27.55,11.17 -299.89,12.53 -316.2,1.13 -5.04,-8.22 41.3,-30.63 53.09,-49.59 15.74,-25.32 149.02,-481.11 156.34,-528.47 8.44,-54.63 -19.8,-57.14 -20.87,-89.31zm-58.5 194.24c-12.68,19.99 -33.77,123.04 -48.1,157.91 -0.39,0.94 -1.24,2.68 -1.57,3.43 -0.32,0.75 -0.94,2.32 -1.61,3.38 -1.05,23.57 -16.29,73.55 -24.75,89.85 -2.29,23.19 -32.83,128.4 -46.32,143.55 -18.16,20.4 -95.31,44.97 -48.71,114.22 67.99,23.22 112.37,15.8 189.68,15.8 45.59,0 157.54,6.86 191.18,-12.56 22.1,-12.77 35.42,-43.48 23.7,-71.49 -14.12,-33.75 -31.15,-18.61 -14.59,-74.22 12.49,-41.95 30.08,-119.15 46.16,-153l136.64 0c0.38,20.3 -19.13,77.6 -25.8,100.65 -9.36,32.37 -14.77,73.43 -37.84,86.95 -16.6,14.09 -36.46,20.51 -48.34,41.39 -15.91,27.96 -5.28,49.79 8.41,67.1 52.75,22.56 97.49,15.18 159.73,15.18 54.61,0 114.94,2.42 168.86,-0.36 52.17,-2.69 102.6,-38.11 69.49,-92.31 -27.14,-44.43 -18.09,-38.25 9.05,-133l116.15 -403.02c18.91,-44.97 62.7,-28.03 74.24,-94.11 1.03,-26.5 -14.95,-41.52 -33.98,-49.42 -20.33,-8.43 -56.7,-6.9 -84.36,-4.25 -58.24,0 -116.47,0.06 -174.71,-0.01 -54.43,-0.06 -111.36,-4.12 -125.08,43.53 -19.08,66.26 41.57,24.08 9.55,134.09 -10.41,35.78 -25.39,101.69 -38.81,129.25l-138.79 -0.1c3.74,-31.56 20.53,-78.58 29.99,-111.83 16.49,-57.98 13.26,-58.15 57.06,-87.69 26.7,-18.01 50.02,-65 11.31,-93.34 -30.5,-22.32 -88.5,-13.9 -129.65,-13.9 -65.86,0 -228.91,-17.25 -260.14,28.26 -34.6,50.42 18.66,65.77 12.69,107.67 -4.75,33.38 -23.79,77.81 -30.73,112.42z"/>
   <path class="fil1" d="M8056.67 1451.78c61.59,23.25 103.48,-43.51 128.89,-74.26 47.54,-57.55 56.73,-61.49 158.84,-58.71l-136.67 490.04c-7.93,27.98 -16.1,55 -31.12,73.73 -15.15,18.89 -43.16,30.29 -53.31,46.77 25.55,13.06 292.63,8.66 322.71,-1 -10.17,-61.31 -44.67,-14.09 -6.12,-151.87l130.18 -458.01c89.26,0 94.34,1 124.91,74 8.43,20.13 20.05,54.31 37.82,62.12 88.95,39.12 103.89,-182.08 103.28,-183.31 -10.99,-22.2 -153.03,-12.96 -186.18,-12.96 -127.78,0 -381.77,-5.61 -498.9,0.38 -37.03,1.89 -49.85,7.61 -61.66,37.6 -12.9,32.75 -44.49,125.12 -32.67,155.49z"/>
   <path class="fil1" d="M3239.7 1451.96c63.3,23.02 102.45,-42.64 128.88,-74.65 46.63,-56.47 57.58,-62.12 158.89,-58.38 -5.39,36.45 -117.11,418.09 -136.74,489.69 -31.69,115.56 -62.47,82.04 -84.39,120.94 26.77,12.88 293.02,8.59 322.71,-1.4 -5.3,-31.25 -23.6,-30.5 -23.88,-71.46 -0.2,-27.79 10.21,-55.13 17.45,-80.49 14.4,-50.45 28.94,-99.93 43.49,-151.39 28.73,-101.62 55,-207.31 87.04,-306.37 88.87,0 94.57,1.67 124.87,74.22 8.24,19.74 21.96,54.62 37.95,61.95 87.62,40.16 104.13,-182.44 103.57,-183.6 -10.66,-21.87 -155.71,-12.72 -186.41,-12.72 -128.59,0 -380.79,-5.6 -498.91,0.37 -37.34,1.89 -49.8,7.33 -61.89,37.4 -14.32,35.6 -43.42,123.48 -32.62,155.88z"/>
   <path class="fil1" d="M7781.37 1729.65c-39.61,21.37 -57.85,72.48 -126.03,110.93 -63.73,35.94 -139.85,26.57 -170.54,-26.58 -57.34,-99.3 42.61,-472.88 187.3,-485.17 124.94,-10.6 117.43,168.33 184.7,172.94 39.56,2.71 42.5,-35.57 53.36,-65.2 13.47,-36.75 66.55,-156.97 45.91,-174.18 -60.02,-28.18 -120.47,43.78 -153.15,63.28 -52.14,-40.75 -93.66,-76.82 -191.07,-78.18 -229.18,-3.2 -380.68,216.1 -373.45,439.65 9.41,290.55 409.55,337.56 560.61,122.49 22.36,-31.83 39.09,-69.89 -17.64,-79.97z"/>
   <path class="fil2" d="M6897.88 1775.29c-16.57,30.18 -46.39,57.14 -94.84,56.4l-43.09 -0.24 53.07 -181.64c51.73,-2.25 26.78,59.46 82.2,80.02l34.84 11.15c0.71,-1.15 2.65,1.39 3.74,2.39 -11.13,9 -25.7,24.13 -35.93,31.92zm9.07 -307.78c-7.99,12.1 -12.85,14.38 -23.88,25.09 -15.35,14.9 -7.81,13.52 -32.44,15.56l42.27 -144.98 108.89 1.06 15.09 53.35c2.39,15.86 4.47,14 5.79,29.95 -53.34,-28.23 -81.74,-0.37 -115.72,19.97zm-440.66 406.83c13.25,-22.05 146.34,-478.52 153.1,-521.74 8.29,-53.02 -21.14,-56.87 -20.9,-89.23 54.27,-14.59 331.52,-5.05 409.21,-5.05 46.73,0 167.73,-16.05 175.02,34.83 3.55,24.78 -34.09,141.54 -43.03,160.5 -97.05,19.51 -59.57,-59.66 -97.29,-115.63 -26.69,-39.6 -133.67,-26 -188.19,-23.62l-67.64 243.13c56.24,0 89.69,9.5 124.17,-22.37 14.73,-13.62 57.69,-64.9 85.66,-41.78 10.23,11.04 -3.92,41.93 -7.76,54.74 -5.79,19.32 -11.89,38.35 -17.24,57.77 -8.92,32.33 -17.44,94.41 -57.52,76.88 -16.32,-9.51 -4.85,1.8 -15.48,-16.43 -1.58,-2.7 -6.22,-13.52 -7.88,-16.98 -26.38,-55.12 -30.62,-49.95 -117.42,-48.95l-75.83 280.41c95.89,0 164.16,15.35 215.67,-43.79 18.03,-20.71 74.47,-89.97 97.42,-97.32 14.04,-4.5 40.07,-5.07 48.49,6.89 7.4,20.41 -29.49,140.94 -43,163.24 -25.59,42.24 -130.8,26.65 -187.84,26.65 -57.73,0 -392.9,6.9 -419.23,-4.77 8.17,-28 34.7,-19.42 57.52,-57.38zm-57.57 -10.35c-15.51,13.65 -35.57,18.16 -45.87,41.82 -13.5,31 -1.69,46.59 10.72,65.35 63.65,24.07 154.45,14.5 229.82,14.5 83.19,0 166.38,0 249.57,0 85.85,0 162.89,13.02 202.16,-46.56 18.83,-28.56 55.99,-152 56.08,-192.06 -3.67,-34.31 -29.41,-60.17 -68.57,-59.36l-45.59 3.85c13.66,-52.4 52.56,-150.6 54.21,-200.71 63.42,28.86 119.4,22.19 142.15,-37.37 14.64,-38.31 40.65,-129.38 38.28,-170.63 -9.85,-57.31 -54.94,-75.38 -124.08,-74.94l-399.38 0.07c-71.97,0 -135.19,-11.15 -158.23,41.8 -24.58,56.5 38.6,27.46 3.5,152.87l-110.89 388.25c-8.77,31.36 -10.2,50.66 -33.86,73.11z"/>
   <path class="fil2" d="M5430.39 1776.95c-17.29,32.76 -39.02,55.57 -89.85,54.71l-43.16 -0.68 49.96 -181.27 22.65 -0.83c35.68,46.06 19.53,84.8 100.51,86.73 -8.3,17.35 -19.46,30.65 -40.1,41.35zm-42.08 -268.51c4.99,-27.22 12.92,-50.11 20.89,-77.27 25,-85.17 -4.08,-68.85 129.81,-66.41l22.55 82.46c-60.85,-17.62 -88.06,-6.23 -133.95,37.58 -15.03,14.34 -14.39,20.65 -39.3,23.63zm164.22 400.48c-26.45,42.81 -128.46,27.57 -187.03,27.57 -59.63,0 -397.71,7.78 -421.89,-6.32 11.32,-22.08 48.05,-26.86 66.61,-69.28 12,-27.43 22.11,-72.24 31.05,-103.53 17.09,-59.88 118.44,-395.94 116.06,-429.69 -3.36,-47.66 -57.82,-67.15 13.18,-69.35l409.63 0.01c125.82,-0 158.9,-18.7 122.8,112.55 -15.2,55.25 -13.42,86.44 -52.97,87.26 -44.74,0.93 -44.15,-39.86 -55.67,-79.75 -12.03,-41.65 -18.82,-62.55 -68.96,-64.36 -43.21,-1.56 -90.18,-0.22 -134.29,-0.11l-67.79 243.63c59.9,0 86,9.84 124.53,-22.83 14.17,-12.02 58.85,-67.86 85.42,-40.27 9.95,10.93 -0.18,28.22 -7.86,53.02 -17.95,57.94 -30.22,155.01 -74.59,135.85 -22.62,-9.77 -22.84,-46.25 -42.99,-68.33 -17.88,-19.59 -66.4,-18.35 -98.3,-12.74l-75.34 278.58c94.6,0 161.39,15.64 213.17,-42 57.24,-63.71 84.65,-116.89 148.21,-96.65 7.22,26.27 -26.93,140.79 -42.97,166.75zm-573.89 -111.98c-4.54,15.6 -14.13,46.93 -21.45,55.89 -7.45,9.1 -33.67,25.7 -45.9,28.97l-4.99 9.98 -5.01 4.99 -4.99 14.98 -4.97 4.99c0,28.82 3.45,36.2 14.97,52.97 76.76,24.78 139.06,15.93 234.6,15.93 83.19,0 166.38,0 249.57,0 177.56,0 192.67,8.31 234.88,-138.38 6.92,-24.04 17.96,-79.18 24.68,-97.64 -4.67,-25.01 -6.09,-29.01 -23.44,-44.05 -12.81,-11.11 -26.13,-17.17 -46.44,-17.85l-46.23 3.13c14.16,-49.54 52.23,-152.81 54.1,-199.41 79.28,32.4 128.08,17.14 149.48,-61.26 15.93,-58.37 52.62,-137.81 12.66,-187.59 -35.61,-44.36 -136.23,-33.4 -204.94,-33.4 -79.86,0 -159.73,0 -239.59,0 -59.39,0 -182.28,-14.07 -210.92,27.43 -30.75,44.57 7.66,65.83 12.4,91.61 3.52,19.1 -16.58,77.46 -22.43,98.08l-106.02 370.64z"/>
   <path class="fil2" d="M1822.51 1602.49c26.17,-10.48 319.93,-8.24 366.44,-3.23 -7.08,41.26 -74.07,40.28 -92.91,87.91 -22.95,58.02 -41.68,157.5 -62.64,216.74 -12.53,35.43 -22.43,33.42 -62.21,32.88 -38.68,-0.53 -48.64,-1.65 -61.09,-33.75 -8.5,-21.93 -19.1,-51.11 -23.82,-73.06 -28.11,18.17 -34.42,39.89 -61.13,60.49 -22.07,17.02 -44.05,32.22 -77.24,42.47 -162.95,50.29 -371.68,-68.25 -287.56,-377.24 37.51,-137.77 96.98,-219.62 207.06,-272.38 90.01,-43.14 198.67,-52.62 289.76,-1.29 31.17,17.56 46.68,36.5 69.8,54.02 24,-18.48 42.52,-43.27 70.59,-61.75 21.28,-14.01 90.26,-36.44 93.3,8.53 0.93,13.68 -22.85,88.9 -27.95,106.69 -10.03,35.03 -15.66,86.35 -51.91,89.03 -38.71,2.86 -63.93,-35.14 -80.14,-55.69 -23.73,-30.08 -37.01,-49.7 -70.36,-69.4 -246.3,-145.43 -412.19,571.39 -133.93,488.36 36.17,-10.79 53.96,-36.26 66.62,-73.07 59.94,-174.23 -69.85,-103.72 -70.69,-166.25zm-400.28 240.9c24.69,28.22 24.11,49.12 74.34,88.91 30.99,24.55 67.34,42.21 112.15,52.38 106.22,24.1 179.1,-4.73 253.6,-61.35 30.17,35.46 19.17,67.82 138.91,62.29 66.95,-3.09 76.62,-56.06 93.53,-115.26 10.86,-38.04 33.05,-133.74 46.87,-162.62 18.94,-39.58 85.23,-22.31 98.39,-110.47 0.55,-13.02 1.77,-5.81 -1.71,-17.48 -0.8,-2.67 -6.36,-12.37 -6.83,-12.96 -7.96,-10.13 -11.83,-10.68 -25.6,-16.38l-164.72 -3.05c-75.81,-0.36 -169.14,-8.57 -236.25,4.93 -11.07,14.55 -21.06,15.17 -28.39,34.86 -6.54,17.58 -2.3,36.45 0.06,54.99 4.91,5.4 6.06,6.97 10,13.85l73.31 33.17 -8.42 39.74c-7.82,43.56 -34.82,86.38 -89.85,60.52 -82.23,-50.34 5.74,-380.23 117.78,-403.59 105.12,-21.92 115.38,155.74 241.24,141.23 56.77,-6.54 69.59,-55.54 84.95,-109.73 10.03,-35.36 41.64,-121.85 32.17,-156.63 -14.22,-52.21 -74.27,-57.56 -131.74,-47.69 -76.57,39.22 -45.48,31.74 -79.86,54.76 -39.12,-26.2 -59.74,-41.34 -111.57,-58.15 -126.98,-41.19 -292.48,16.15 -386.38,109.26 -53.03,52.59 -94.78,142.6 -117.82,226.6 -21.93,79.97 -31.52,222.98 11.79,297.83z"/>
   <path class="fil1" d="M5873.26 1262.52c2.69,65.45 48.9,0.63 -4.53,179.23 -18.51,61.87 -107.34,405.08 -128.9,435.01 -26.01,36.11 -49.94,32.31 -59.09,55.73 21.11,6.37 482.93,8.94 553.05,3.22 38.38,-3.13 54.53,-16.54 67.72,-46.4 9.9,-22.42 49.25,-155.21 42.18,-169.85 -9.24,-16.47 -24.62,-19.64 -51.52,-13.72 -17.65,3.89 -34.06,16.43 -43.21,26.26 -10.12,10.88 -20.13,24.19 -31.78,38.04 -11.1,13.19 -22.85,27.24 -34.02,40.97 -65.58,80.61 -85.59,69.8 -214.49,69.8 2.86,-30.79 145.85,-533.64 164.78,-563.68 17.96,-28.5 94.43,-56.57 31.44,-59.01 -66.34,-2.57 -233.53,-5.95 -291.62,4.38z"/>
   <path class="fil2" d="M4361.76 1858.58c-29.29,17.62 -115.18,112.91 -149.02,67.04 -11.2,-18.07 16.86,-81.1 24.37,-104.06 15.33,-46.84 38.47,-191.31 121.02,-80.39 18.65,25.06 41.11,58.52 61.61,78.15 67.5,64.64 157.15,75.03 197.18,22.55 93.59,-122.7 -171.4,-170.97 -242.22,-291.98 -86.42,-147.65 79.77,-369.84 348.33,-278.46 39.62,13.48 68.14,35.15 99.39,45.99 30.16,-29.67 68.07,-72.1 130.36,-55.72 6.78,30.98 -14.92,76.29 -24.32,108.16 -7.77,26.33 -19.13,91.59 -43.19,97.75 -43.8,11.21 -83.39,-77.05 -152.79,-125.83 -117.79,-82.79 -248.01,41.23 -108.09,138.06 121.6,84.16 282.33,136.48 216.69,316.77 -55.94,153.64 -275.48,170.68 -391.66,117.9 -41.41,-18.81 -57,-37.16 -87.68,-55.93zm0.45 63.58c33.66,17.38 60.81,39.14 106.77,52.63 123.55,36.26 299.27,9.29 374.86,-85.44 44.02,-55.18 85.34,-161.65 45.39,-249.92 -54.8,-121.09 -233.33,-176.99 -267.73,-226.92 -36.68,-53.24 41.23,-59.67 84.89,-29.55 75.15,51.85 102.83,152.83 193.25,132.72 44.39,-9.88 52.61,-55.36 65.78,-98.74 11,-36.23 31.95,-91.17 37.89,-126.67 9,-53.82 -26.65,-81.94 -77,-83.1 -62.99,-1.46 -79.93,35.9 -114.86,49.64 -173.42,-98.85 -386.86,-59.55 -471.2,78.87 -48.51,79.61 -47.49,188.36 5.47,258.1 71.03,93.54 217.64,148.3 233.63,181.36 28.04,58.01 -74.45,78.49 -141.12,-9.27 -21.77,-28.65 -50.54,-73.09 -74.06,-90.64 -33.58,-25.07 -93.05,-28.5 -122.13,1.54 -17.02,17.59 -85.09,207.97 -83.09,244.3 2.58,46.88 46.04,69.97 96.73,63.23 54.35,-7.22 73.63,-44.95 106.55,-62.12z"/>
   <path class="fil2" d="M7781.37 1729.65c56.74,10.08 40,48.14 17.64,79.97 -151.05,215.07 -551.2,168.07 -560.61,-122.49 -7.24,-223.55 144.26,-442.85 373.45,-439.65 97.41,1.36 138.93,37.44 191.07,78.18 32.68,-19.5 93.13,-91.46 153.15,-63.28 20.64,17.21 -32.44,137.43 -45.91,174.18 -10.86,29.63 -13.8,67.91 -53.36,65.2 -67.27,-4.61 -59.76,-183.54 -184.7,-172.94 -144.7,12.28 -244.65,385.87 -187.3,485.17 30.69,53.15 106.8,62.52 170.54,26.58 68.18,-38.45 86.42,-89.55 126.03,-110.93zm-534.09 -302.08l-5.01 9.98 -34.94 99.83c-25.95,112.38 -31.49,178.47 10,281.15 37.46,44.48 42.63,82.92 132.46,130.64 251.09,133.39 522.92,-64.01 521.35,-197.16 -2.53,-32.79 -39.19,-60.18 -65.3,-69.65 -43.68,-15.85 -65.46,13.21 -88.12,35.96 -38.43,38.58 -92,111.47 -170.96,87.92 -103.58,-42.9 80.32,-574.66 184.11,-393.13 22.01,38.49 38.67,84.95 67,112.76 30.15,29.61 91.46,37.13 123.33,1.57 26.09,-29.12 58.2,-140.01 77.48,-192.04 6.96,-18.78 13.74,-57.37 17.28,-65.51 -17.44,-44.93 -25.59,-64.35 -100,-62.25 -41.2,1.16 -93.95,33.79 -109.65,55.21 -46.77,-31.32 -76.78,-51.65 -146.64,-63 -154.38,-25.06 -317.29,61.67 -392.26,192.95l-13.78 26.15c-6.07,9.54 -1.92,3.51 -6.36,8.61z"/>
   <path class="fil2" d="M8056.67 1451.78c-11.82,-30.38 19.77,-122.74 32.67,-155.49 11.81,-29.99 24.63,-35.71 61.66,-37.6 117.13,-5.99 371.12,-0.38 498.9,-0.38 33.15,0 175.19,-9.24 186.18,12.96 0.61,1.23 -14.34,222.43 -103.28,183.31 -17.76,-7.81 -29.38,-41.99 -37.82,-62.12 -30.57,-73 -35.64,-74 -124.91,-74l-130.18 458.01c-38.54,137.77 -4.05,90.56 6.12,151.87 -30.08,9.66 -297.16,14.06 -322.71,1 10.15,-16.48 38.16,-27.88 53.31,-46.77 15.01,-18.73 23.19,-45.75 31.12,-73.73l136.67 -490.04c-102.11,-2.78 -111.3,1.16 -158.84,58.71 -25.4,30.75 -67.3,97.51 -128.89,74.26zm-20.75 -163.98c-1.87,59.47 -36.15,96.34 -31.82,169.71 3.79,9.05 7.54,16.77 11.88,25.29 28.21,13.32 33.07,30.35 83.32,23.09 92.68,-13.38 116.68,-130.75 181.5,-137.12l-30.24 98.72c-22.42,97.09 -68.42,236.17 -94.73,339.51 -6.83,26.83 -11.25,42.48 -32.84,57.01 -19.76,13.31 -35.32,22.38 -46.02,44.08 -14.72,29.84 -0.38,44.8 13.87,62.11 53.27,25.92 213.43,14.18 284.56,14.3 49.06,0.08 94.7,0.64 113.03,-34.64 28.15,-54.17 -26.76,-57.91 -14.64,-114.17 9.22,-42.82 128.62,-457 136.17,-467.49 28.26,0.98 33.14,20.19 47.33,64.35 -4.61,15.39 -2.93,6.73 2.59,9.14 22.1,25.18 27.05,56.65 71.49,63.94 41.54,6.82 74.38,-6.3 95.46,-30.83 23.89,-27.82 61.39,-153.13 61.04,-201.98 -6.26,-80.9 -94.99,-64.89 -183.06,-64.89l-499.15 0c-69.87,-0.01 -108.39,-4.66 -146.12,38.57 -9.21,10.55 -5.17,4.52 -12,17.94l-11.61 23.35z"/>
   <path class="fil2" d="M3239.7 1451.96c-10.8,-32.4 18.3,-120.27 32.62,-155.88 12.09,-30.07 24.55,-35.52 61.89,-37.4 118.11,-5.97 370.32,-0.37 498.91,-0.37 30.7,0 175.75,-9.15 186.41,12.72 0.56,1.16 -15.95,223.77 -103.57,183.6 -16,-7.33 -29.71,-42.21 -37.95,-61.95 -30.3,-72.55 -36,-74.22 -124.87,-74.22 -32.04,99.06 -58.31,204.75 -87.04,306.37 -14.55,51.45 -29.09,100.94 -43.49,151.39 -7.23,25.36 -17.64,52.7 -17.45,80.49 0.28,40.96 18.58,40.21 23.88,71.46 -29.69,9.98 -295.94,14.27 -322.71,1.4 21.92,-38.91 52.71,-5.39 84.39,-120.94 19.63,-71.59 131.36,-453.24 136.74,-489.69 -101.31,-3.73 -112.25,1.91 -158.89,58.38 -26.43,32.01 -65.58,97.67 -128.88,74.65zm-11.97 -179.13c-20.05,72.36 -90.99,224.19 26.79,233.91 116.24,9.59 142.03,-133.63 208.28,-138.13 -9.52,50.95 -89.2,319.77 -109.67,392.47 -8.62,30.63 -15.55,72.02 -32.95,91.88 -19.8,22.6 -56.43,26.72 -62.39,69.2 -12.04,85.78 129.51,62.32 190.99,62.32 62.1,0 188.78,14.46 218.91,-28.62 30.62,-43.78 -5.97,-63.08 -12.15,-90.99 -4.8,-21.7 16.31,-80.58 22.72,-103.15 16.07,-56.61 97.38,-369.93 114.93,-393.61 32.12,1.53 34.17,32.08 47.29,62.01 53.39,121.86 160.86,88.36 191.89,2.02 85.87,-238.86 17.56,-222.96 -149.34,-222.96 -102.55,-9.83 -251.72,-1.23 -359.39,-1.23 -59.96,0 -119.92,-0.12 -179.87,-0.18 -60.25,-0.06 -99.42,20.03 -116.05,65.06z"/>
   <path class="fil1" d="M895.41 1930.34c21.3,11.89 291.06,11.59 319.83,-0.98 0.27,-29.19 -33.52,-33.1 -18.76,-98.89l88.36 -315.6c14.02,-50.53 42.29,-171 66.23,-203.27 15.63,-21.08 85.87,-49.74 32.07,-53.35l-270.6 0.36c-56.97,4.36 -2.99,28.29 -4.28,79 -0.75,29.48 -99.51,365.25 -115.99,423.54 -8.27,29.25 -20.47,80.44 -31.44,103.57 -17.11,36.08 -55.56,45.33 -65.41,65.61z"/>
   <path class="fil2" d="M5873.26 1262.52c58.09,-10.33 225.28,-6.95 291.62,-4.38 62.99,2.44 -13.48,30.51 -31.44,59.01 -18.93,30.04 -161.92,532.89 -164.78,563.68 128.9,0 148.91,10.81 214.49,-69.8 11.17,-13.73 22.92,-27.78 34.02,-40.97 11.65,-13.85 21.66,-27.16 31.78,-38.04 9.15,-9.83 25.56,-22.37 43.21,-26.26 26.9,-5.92 42.28,-2.76 51.52,13.72 7.07,14.64 -32.28,147.43 -42.18,169.85 -13.18,29.86 -29.34,43.27 -67.72,46.4 -70.13,5.72 -531.95,3.15 -553.05,-3.22 9.15,-23.42 33.08,-19.62 59.09,-55.73 21.56,-29.93 110.38,-373.14 128.9,-435.01 53.43,-178.6 7.22,-113.78 4.53,-179.23zm-27.8 80.2c-6.32,11.1 -15.96,52.82 -19.66,65.97 -6.95,24.7 -13.84,48.08 -19.97,69.88 -13.42,47.77 -27.75,94.7 -39.99,139.71l-57.9 206.65c-7.42,26.7 -18.08,40.25 -42.96,46.89l-5.44 4.99c-24.93,33.68 -33.69,25.59 -23.47,84.86l8.95 8.49c67.87,27.62 165.23,15.49 244.58,15.49 86.52,0 173.04,-0 259.56,0 93.98,0 153.43,8.43 192.25,-66.52 27.82,-53.71 46.92,-174.78 57.33,-201.01 -13.54,-31.59 -17.28,-56.54 -76.17,-64.98 -124.43,-17.83 -167.97,172.17 -244.17,173.75 -12.38,7.85 -26.94,4.82 -45.67,4.82 10.43,-50.18 29.2,-103.92 42.87,-153.28 13.86,-50.03 28.38,-101.23 42.8,-151.74 14.34,-50.2 27.4,-101.17 43.17,-151.48 24.44,-77.98 68.68,-37.97 80.43,-112.35 6.55,-76.54 -128.99,-54.81 -202.65,-54.93 -47.7,3.7 -137.99,-5.63 -176.87,7.65 -22.51,7.69 -38.74,23.13 -39.92,52.3 -1.49,36.93 21.39,35.06 22.9,74.85z"/>
   <path class="fil0" d="M503.81 1923.92c12.45,122.03 202.15,177.97 359.39,72.68 13.88,51.99 78.88,44.92 144.75,44.92 64.92,0 229.12,11.69 265.53,-18.99 14.4,-12.14 30.01,-40.52 20.87,-67.37 -9.31,-27.34 -29.28,-30.87 -18.97,-70.19l126.26 -448.06c26.74,-88.37 62.1,-47.06 81.74,-108.31 10.36,-32.3 -4.28,-52.73 -27.82,-65.75 -9.86,66.64 -58.05,46.79 -76.81,101.28 -14.72,42.73 -27.69,96.91 -39.45,140.08 -9.78,35.91 -96.99,333.51 -96.87,352.77 0.16,25.73 94.67,128.82 -89.68,128.7 -59.91,-0.04 -119.83,-0.06 -179.74,-0.03 -61.41,0.03 -116.27,8.48 -127.39,-50.06 -19.42,8.52 -15.17,11.68 -38.14,25.38 -11.95,7.13 -24.95,13.98 -40.33,19.51 -30.38,10.93 -69.2,15.44 -103.68,14.88 -108.42,-1.75 -125.49,-43.5 -159.66,-71.44z"/>
   <path class="fil0" d="M1422.24 1843.39c2.17,22.68 16.05,46.33 24.88,63.44 29.88,57.9 86.05,102.5 150.37,124.17 87.35,29.43 180.54,21.8 260.1,-28.32 12.45,-7.84 18.26,-13.96 28.86,-21.05 5.37,23.03 21.46,38.24 41.35,48.49 27.43,14.14 44.94,11.57 83.62,11.59 103.39,0.07 103.7,-91.04 142.84,-226.55 25.55,-88.48 5.68,-50.04 86.78,-103.09 8.47,-16.29 23.7,-66.28 24.75,-89.85l-25.75 -24.96c-13.16,88.15 -79.45,70.88 -98.39,110.47 -13.82,28.88 -36.01,124.58 -46.87,162.62 -16.91,59.2 -26.57,112.17 -93.53,115.26 -119.74,5.53 -108.74,-26.83 -138.91,-62.29 -74.5,56.62 -147.38,85.45 -253.6,61.35 -44.81,-10.17 -81.16,-27.83 -112.15,-52.38 -50.23,-39.79 -49.65,-60.7 -74.34,-88.91z"/>
   <path class="fil0" d="M2146 1969.85c1.58,81.06 76.97,71.69 129.78,71.68 68.25,-0.02 136.52,-0.25 204.77,0.12 34.61,0.19 60.79,-3.51 80.86,-18.97 18.83,-14.51 30.91,-47.19 18.34,-75.34 -15.24,-34.11 -29.46,-19.35 -12.86,-73.89 8.32,-27.36 17.33,-55.59 23.36,-81.5 22.98,15.39 43.83,54.19 64.89,70.02 23.07,-13.52 28.48,-54.58 37.84,-86.95 6.67,-23.05 26.17,-80.35 25.8,-100.65l-136.64 0c-16.08,33.85 -33.68,111.05 -46.16,153 -16.56,55.6 0.47,40.46 14.59,74.22 11.72,28.01 -1.6,58.72 -23.7,71.49 -33.64,19.43 -145.59,12.56 -191.18,12.56 -77.3,0 -121.68,7.42 -189.68,-15.8z"/>
   <path class="fil0" d="M6373.57 1971.14c1.46,93.86 94.56,70.38 219.83,70.38 96.5,0 193,0 289.5,0 115.91,0 177.77,9.01 214.71,-74.79 12.82,-29.08 22.88,-76.65 33.13,-111.63 13.42,-45.83 21.63,-84.52 -19.55,-108.08 -0.09,40.06 -37.25,163.5 -56.08,192.06 -39.27,59.58 -116.32,46.56 -202.16,46.56 -83.19,0 -166.38,0 -249.57,0 -75.37,0 -166.16,9.57 -229.82,-14.5z"/>
   <path class="fil0" d="M8090.84 1970.21c-6.05,17.4 2.72,39.75 18.39,52.92 13.88,11.67 37.3,18.09 61.24,18.63 57.4,1.28 270.2,4.8 310.47,-9.45 42.55,-15.06 59.24,-59.4 28.95,-105.48 -16.21,-24.66 -9.07,-32.18 -0.38,-60.61l125.41 -443.64c14.47,3.86 9.04,3.18 22.37,9.98 -14.19,-44.16 -19.07,-63.38 -47.33,-64.35 -7.55,10.5 -126.95,424.67 -136.17,467.49 -12.11,56.26 42.79,59.99 14.64,114.17 -18.33,35.28 -63.97,34.72 -113.03,34.64 -71.13,-0.12 -231.29,11.62 -284.56,-14.3z"/>
   <path class="fil0" d="M4906.28 1969.71c5.81,81.13 65.76,71.81 149.74,71.81l439.28 0.03c42.41,0.23 63.84,-2.04 91.62,-18.19 21.19,-12.32 40.93,-36.98 49.15,-61.71 -10.22,-59.27 -1.46,-51.18 23.47,-84.86l5.44 -4.99c3.11,-37.33 26.24,-59.69 6.01,-100.91 -11.24,-22.91 -17.8,-20.22 -20.98,-21.28 -6.72,18.47 -17.76,73.6 -24.68,97.64 -42.21,146.7 -57.32,138.38 -234.88,138.38 -83.19,0 -166.38,0 -249.57,0 -95.54,0 -157.84,8.84 -234.6,-15.93z"/>
   <path class="fil0" d="M5645.02 1970.16c0,79.06 67.02,71.37 144.75,71.37l434.29 0.03c38,0.2 70,-2.21 94.72,-15.09 28.63,-14.92 35.82,-31.07 54.78,-55.32 -12.42,-18.76 -24.23,-34.34 -10.72,-65.35 10.3,-23.66 30.36,-28.17 45.87,-41.82 0.61,-31.99 13.37,-43.64 15.2,-77.06 1.96,-35.89 -4.24,-57.61 -25.18,-68.8 -10.4,26.22 -29.51,147.29 -57.33,201.01 -38.82,74.95 -98.27,66.52 -192.25,66.52 -86.52,-0 -173.04,0 -259.56,0 -79.35,0 -176.72,12.13 -244.58,-15.49z"/>
   <path class="fil0" d="M7546.77 1806.24c0,-111.98 36.05,-250.52 96.83,-331.76 106.49,-142.34 110.73,107.01 219.57,130.98 106.95,23.55 116.27,-101.43 140.92,-147.94 -4.33,-73.37 29.95,-110.24 31.82,-169.71l-17.39 -16.1c-0.45,-0.36 -1.6,-1.38 -2.55,-1.81 -3.54,8.15 -10.32,46.73 -17.28,65.51 -19.29,52.03 -51.39,162.92 -77.48,192.04 -31.87,35.56 -93.18,28.03 -123.33,-1.57 -28.32,-27.81 -44.99,-74.26 -67,-112.76 -103.79,-181.53 -287.7,350.23 -184.11,393.13z"/>
   <path class="fil0" d="M7217.33 1818.54c3.25,33.65 33.51,79.74 50.57,102.54 70.23,93.84 202.5,138.95 338.1,124.78 116.7,-12.19 225.47,-90.05 280.11,-184.09 21.27,-36.6 18.36,-87.62 -14.98,-109.74 1.57,133.15 -270.26,330.55 -521.35,197.16 -89.83,-47.72 -95.01,-86.16 -132.46,-130.64z"/>
   <path class="fil2" d="M533.75 1513.41l-44.87 3.34 35.17 -143.69c25.96,-0.29 41.11,-0.38 61.19,7.46 4.39,18.11 8.89,30.53 -1.57,46.67 -0.44,20.37 -6.19,36.69 -13.98,51.29 -10.45,19.59 -17.88,23.26 -35.93,34.94zm-108.08 52.35c118.34,0.53 171.51,5.7 203.75,-102.62 36.25,-121.8 -29.11,-150.71 -143.2,-138.01l-60.55 240.63z"/>
   <path class="fil0" d="M6078.38 1826.89c3.94,-24.87 13.88,-53.55 20.27,-75.46l87.17 -307.16c10.27,-35.83 7.19,-44.59 36.08,-63.74 65.18,-43.21 63.71,-94.5 20.08,-117.68 -11.76,74.38 -55.99,34.38 -80.43,112.35 -15.77,50.31 -28.83,101.28 -43.17,151.48 -14.43,50.5 -28.95,101.71 -42.8,151.74 -13.67,49.37 -32.44,103.11 -42.87,153.28 18.73,0 33.29,3.03 45.67,-4.82z"/>
   <path class="fil0" d="M19.63 1969.61c0,56.79 30.3,72.46 94.72,72.04 63.75,-0.42 285.49,9.16 328.19,-11.47 45.45,-21.97 48.29,-78.28 5.24,-103.45 -8.25,77.53 -116.31,58.92 -188.55,58.92 -71.51,0 -181.46,12.21 -239.59,-16.03z"/>
   <path class="fil0" d="M7042.63 1687.67c6.14,-13.61 15.48,-49.14 19.98,-65.41 6.33,-22.87 14.64,-47.12 19.95,-69.9 48.56,23.3 90.89,7.77 124.77,-14.98l34.94 -99.83 5.01 -9.98c2.6,-31.23 15.94,-44.09 15.44,-79.87 -0.48,-34.38 -9.89,-51.79 -31.05,-64.88 2.37,41.25 -23.64,132.32 -38.28,170.63 -22.75,59.56 -78.72,66.23 -142.15,37.37 -1.64,50.11 -40.55,148.31 -54.21,200.71l45.59 -3.85z"/>
   <path class="fil0" d="M8659.87 1441.7c2.83,36.39 39.64,96.16 64.89,110.65 42.67,24.48 107.99,6.91 130.75,-23.98 21.31,-28.92 63.51,-165.18 63.59,-195.71 0.02,-8.81 -4.7,-28.72 -7.97,-36.5 -6.61,-15.71 -10.81,-19.49 -23.28,-23.34 0.35,48.85 -37.15,174.16 -61.04,201.98 -21.07,24.53 -53.92,37.65 -95.46,30.83 -44.44,-7.29 -49.39,-38.76 -71.49,-63.94z"/>
   <path class="fil0" d="M8015.97 1482.81c5.22,61 53.12,92.91 121.17,75.93 58.8,-14.68 95.92,-79.49 113.4,-91.23l30.24 -98.72c-64.82,6.38 -88.82,123.75 -181.5,137.12 -50.25,7.26 -55.11,-9.78 -83.32,-23.09z"/>
   <path class="fil0" d="M828.25 1651.89c21.6,-17.84 45.96,-25.76 65.04,-49.47 19.23,-23.89 30.21,-38.53 42.79,-72.01 23.26,-61.86 13.14,-149.61 -26.44,-182.7 15.49,59.97 12.83,107.39 -15.65,160.59 -31.43,58.71 -49.01,57.19 -102.49,93.98 11.67,14.84 24.22,37.88 36.74,49.61z"/>
   <path class="fil0" d="M5388.31 1508.44c24.91,-2.99 24.27,-9.29 39.3,-23.63 45.9,-43.81 73.11,-55.2 133.95,-37.58l-22.55 -82.46c-133.89,-2.44 -104.82,-18.76 -129.81,66.41 -7.97,27.16 -15.9,50.04 -20.89,77.27z"/>
   <path class="fil0" d="M5340.54 1831.67c5.32,-22.34 10.42,-39 17.13,-62.51 9.72,-34.02 8.63,-51.67 22.8,-62.06 19.09,5.1 16.88,14.32 26.62,33.28 7.44,14.49 15.22,24.56 23.3,36.58 20.64,-10.7 31.8,-24 40.1,-41.35 -80.98,-1.92 -64.82,-40.67 -100.51,-86.73l-22.65 0.83 -49.96 181.27 43.16 0.68z"/>
   <path class="fil0" d="M428.93 1885.71c8.75,-15.96 16.38,-53.48 22.8,-75.95 6.03,-21.09 14.96,-62.77 22.13,-77.71l29.95 -1.01c11.72,-13.09 12.93,-28.04 7.19,-45.82 -17.39,-11.35 -31.23,-9.71 -57.1,-9.79 -15.54,3.62 -14.33,18.74 -22.52,49.14 -26.5,98.34 -52.94,130.53 -2.43,161.14z"/>
   <path class="fil0" d="M6906.95 1467.5c3.1,-19.33 9.29,-30.53 10.9,-49.91l99.02 0 -15.09 -53.35 -108.89 -1.06 -42.27 144.98c24.63,-2.04 17.09,-0.66 32.44,-15.56 11.03,-10.71 15.89,-12.99 23.88,-25.09z"/>
   <path class="fil0" d="M6803.04 1831.68l34.94 -124.59c29.55,2.46 7.98,7.64 59.9,68.19 10.23,-7.79 24.8,-22.91 35.93,-31.92 -1.09,-1 -3.04,-3.54 -3.74,-2.39l-34.84 -11.15c-55.42,-20.56 -30.47,-82.27 -82.2,-80.02l-53.07 181.64 43.09 0.24z"/>
   <path class="fil0" d="M533.75 1513.41c1.42,-18.5 13.76,-72.91 19.97,-85.84l29.95 -0.38c10.47,-16.13 5.96,-28.56 1.57,-46.67 -20.08,-7.83 -35.23,-7.74 -61.19,-7.46l-35.17 143.69 44.87 -3.34z"/>
   <path class="fil0" d="M848.22 1815.38c7.54,-12.96 15.83,-61.75 13.26,-81.29 -4.13,-31.53 -12.91,-59.21 -34.15,-71.92 9.78,65.2 -8.41,87.69 -15.04,144.76l35.92 8.46z"/>
   <path class="fil0" d="M1851.5 1728.96l8.42 -39.74 -73.31 -33.17c0.45,22.15 6.39,40.57 18.47,52.55 6.92,6.86 12.93,9.84 21.21,13.93 13.78,6.81 10.12,7.4 25.21,6.43z"/>
  </g>
 </g>
</svg>
